<?xml version="1.0" standalone="no"?>
<!DOCTYPE svg PUBLIC "-//W3C//DTD SVG 20010904//EN"
 "http://www.w3.org/TR/2001/REC-SVG-20010904/DTD/svg10.dtd">
<svg version="1.0" xmlns="http://www.w3.org/2000/svg"
 width="512.000000pt" height="512.000000pt" viewBox="0 0 512.000000 512.000000"
 preserveAspectRatio="xMidYMid meet">

<g transform="translate(0.000000,512.000000) scale(0.100000,-0.100000)"
fill="#000000" stroke="none">
<path d="M2477 5110 c-91 -23 -179 -86 -233 -167 -51 -77 -64 -130 -64 -266 0
-85 -3 -119 -12 -121 -118 -34 -265 -89 -351 -132 -464 -229 -781 -639 -889
-1151 -22 -106 -23 -120 -26 -918 l-3 -810 -259 -260 -260 -261 0 -127 0 -127
2180 0 2180 0 0 127 0 127 -260 261 -259 260 -3 810 c-3 798 -4 812 -26 918
-108 512 -425 922 -889 1151 -86 43 -233 98 -350 132 -10 2 -13 36 -13 121 0
136 -13 189 -64 266 -67 101 -176 165 -293 172 -37 2 -85 0 -106 -5z m220
-1025 c39 -3 113 -17 164 -31 435 -116 755 -470 834 -921 13 -72 15 -231 15
-969 l0 -884 -1150 0 -1150 0 0 884 c0 738 2 897 15 969 79 452 400 806 838
922 99 26 252 45 322 39 22 -2 72 -6 112 -9z"/>
<path d="M2050 477 c0 -96 64 -238 145 -319 102 -104 220 -153 365 -153 145 0
263 49 365 153 81 81 145 223 145 319 l0 33 -510 0 -510 0 0 -33z"/>
</g>
</svg>
